Coordinates
version=1
nRows=10
nColumns=63
inDegrees=yes

Units are S.I. units (second, meters, Newtons, ...)
If the header above contains a line with 'inDegrees', this indicates whether rotational values are in degrees (yes) or radians (no).

endheader
time	pelvis_tilt	pelvis_list	pelvis_rotation	pelvis_tx	pelvis_ty	pelvis_tz	hip_flexion_r	hip_adduction_r	hip_rotation_r	knee_angle_r	knee_angle_r_beta	ankle_angle_r	subtalar_angle_r	mtp_angle_r	hip_flexion_l	hip_adduction_l	hip_rotation_l	knee_angle_l	knee_angle_l_beta	ankle_angle_l	subtalar_angle_l	mtp_angle_l	L5_S1_Flex_Ext	L5_S1_Lat_Bending	L5_S1_axial_rotation	L4_L5_Flex_Ext	L4_L5_Lat_Bending	L4_L5_axial_rotation	L3_L4_Flex_Ext	L3_L4_Lat_Bending	L3_L4_axial_rotation	L2_L3_Flex_Ext	L2_L3_Lat_Bending	L2_L3_axial_rotation	L1_L2_Flex_Ext	L1_L2_Lat_Bending	L1_L2_axial_rotation	L1_T12_Flex_Ext	L1_T12_Lat_Bending	L1_T12_axial_rotation	Abs_r3	Abs_r2	Abs_r1	Abs_t1	Abs_t2	neck_flexion	neck_bending	neck_rotation	arm_flex_r	arm_add_r	arm_rot_r	elbow_flex_r	pro_sup_r	wrist_flex_r	wrist_dev_r	arm_flex_l	arm_add_l	arm_rot_l	elbow_flex_l	pro_sup_l	wrist_flex_l	wrist_dev_l
      3.74074074	     14.53296055	    -22.82080564	    111.11021754	      0.21346723	      0.87245328	      0.70793695	     36.36798990	      1.62310508	    -19.55499989	     24.74461325	      0.43187497	     27.90720740	      2.42632431	      0.00000000	     43.84314562	     -3.42394898	     16.06126572	     32.45032898	      0.56636508	     27.44263853	     -3.57202955	      0.00000000	      0.23022928	      2.11878165	     -1.14356412	      0.42755880	      2.81797959	     -1.21503687	      0.37824368	      5.15160570	     -1.21503687	      0.26312904	      5.15160570	     -1.00061860	      0.21379091	      4.32061954	     -0.92914585	      0.13155301	      3.28199277	     -0.85767309	      1.64450472	     23.96808177	     -6.36016055	      0.00000000	      0.00000000	      1.72025105	     -3.99779315	     -2.95882564	     15.52547776	    -19.50054180	     22.65078089	     33.05547983	     88.76289409	    -24.93119028	     -5.71726881	      4.92126250	     -1.63892924	     17.04159817	     53.40275722	     88.50096537	    -13.78342814	      1.18989310
      3.75925926	     14.52599492	    -22.76221632	    111.19225423	      0.21358034	      0.87361668	      0.70792098	     36.39877986	      1.57131137	    -19.66002411	     24.96020938	      0.43563784	     27.77311346	      2.33404333	      0.00000000	     43.56789505	     -3.44515245	     16.19232142	     31.85513558	      0.55597700	     27.54331926	     -3.15012830	      0.00000000	      0.20653347	      2.09258467	     -1.20660148	      0.38355331	      2.78313761	     -1.28201407	      0.33931384	      5.08791037	     -1.28201407	      0.23604711	      5.08791037	     -1.05577630	      0.19178698	      4.26719866	     -0.98036370	      0.11801323	      3.24141366	     -0.90495111	      1.47524794	     23.67173632	     -6.71075546	      0.00000000	      0.00000000	      2.19934482	     -4.21803201	     -2.62731073	     14.70571077	    -18.68205220	     22.63558142	     33.25513692	     88.26396570	    -23.30949811	     -4.88636968	      4.91324841	     -1.74942734	     16.71419847	     53.49047303	     88.55544237	    -13.85463818	      0.93655931
      3.77777778	     14.20241368	    -22.61354652	    111.17104712	      0.21436347	      0.87540449	      0.70725711	     36.17433901	      1.43209959	    -19.39507168	     25.03906447	      0.43701412	     27.61895512	      1.84676173	      0.00000000	     43.22016135	     -3.42095628	     15.61960476	     31.50734491	      0.54990691	     27.59709065	     -2.04918810	      0.00000000	      0.18258709	      2.02316340	     -1.23420281	      0.33908248	      2.69080732	     -1.31134048	      0.29997233	      4.91911948	     -1.31134048	      0.20867878	      4.91911948	     -1.07992746	      0.16955037	      4.12563480	     -1.00278978	      0.10433026	      3.13388010	     -0.92565210	      1.30420131	     22.88642897	     -6.86426575	      0.00000000	      0.00000000	      2.16227440	     -3.99144625	     -2.26791393	     13.09294893	    -17.48356967	     19.59830002	     34.27553443	     88.05440292	    -18.47508717	     -3.11211461	      5.03402917	     -1.98177662	     16.68913938	     53.26320579	     88.56392869	    -13.98348924	     -0.04606629
      3.79629630	     13.60631183	    -22.47021007	    110.77683968	      0.21567437	      0.87773568	      0.70601956	     35.86280585	      1.27669637	    -18.71585788	     25.12104138	      0.43844488	     27.30940898	      1.26611732	      0.00000000	     42.56585009	     -3.34053314	     15.06451280	     30.87463267	      0.53886400	     27.56875697	     -1.48747762	      0.00000000	      0.16144043	      1.91295447	     -1.16297507	      0.29981102	      2.54422945	     -1.23566101	      0.26523048	      4.65115751	     -1.23566101	      0.18451026	      4.65115751	     -1.01760318	      0.14991358	      3.90089676	     -0.94491724	      0.09224706	      2.96316648	     -0.87223130	      1.15315282	     21.63972361	     -6.46811844	      0.00000000	      0.00000000	      2.27054464	     -3.84288437	     -2.92682703	     11.56271074	    -16.46896139	     18.03276340	     35.21521493	     87.38939491	    -15.81158864	     -2.17848893	      5.30862917	     -2.43992697	     17.24880023	     52.98718281	     88.52256897	    -13.95877761	     -0.91561884
      3.81481481	     12.86303669	    -22.25512487	    110.38911776	      0.21725276	      0.88053689	      0.70453014	     35.40746263	      1.04997082	    -17.91267073	     25.13644944	      0.43871380	     26.91121811	      0.51943398	      0.00000000	     41.75597271	     -3.15870888	     14.48208670	     30.16853832	      0.52654032	     27.43954509	     -0.98228329	      0.00000000	      0.14295178	      1.77920425	     -1.06786317	      0.26547574	      2.36634166	     -1.13460462	      0.23485547	      4.32595722	     -1.13460462	      0.16337959	      4.32595722	     -0.93438027	      0.13274502	      3.62815331	     -0.86763883	      0.08168265	      2.75598739	     -0.80089738	      1.02109025	     20.12671435	     -5.93913459	      0.00000000	      0.00000000	      2.66046958	     -3.67846708	     -3.88386202	     10.03555456	    -15.56201981	     16.69277103	     36.55242573	     86.83690577	    -14.17184242	     -1.69095971	      5.78722554	     -3.02926327	     18.26116696	     52.44116892	     88.46479032	    -13.81573046	     -1.76752813
      3.83333333	     12.06736849	    -21.96857978	    109.98589664	      0.21904668	      0.88371961	      0.70282403	     34.86471378	      0.83953276	    -16.98683146	     25.11770665	      0.43838668	     26.43372312	     -0.37532030	      0.00000000	     40.81093818	     -2.98839586	     13.83423716	     29.38248471	      0.51282110	     27.19141852	     -0.49722073	      0.00000000	      0.12953060	      1.63325026	     -0.94684163	      0.24055127	      2.17222285	     -1.00601923	      0.21280582	      3.97108468	     -1.00601923	      0.14804052	      3.97108468	     -0.82848642	      0.12028211	      3.33052393	     -0.76930882	      0.07401378	      2.52990465	     -0.71013122	      0.92522411	     18.47565360	     -5.26604908	      0.00000000	      0.00000000	      3.34954925	     -3.62935439	     -5.23707609	      8.52766609	    -14.82193719	     15.42511475	     38.32589737	     86.82392060	    -13.41228936	     -1.82693035	      6.45571491	     -3.68589559	     19.78974441	     51.60836036	     88.39787822	    -13.82959309	     -2.68933620
      3.85185185	     11.19888006	    -21.58182966	    109.60484745	      0.22101054	      0.88709995	      0.70072170	     34.16163307	      0.58587536	    -16.12752331	     24.99916370	      0.43631772	     26.02484246	     -1.11637119	      0.00000000	     39.69664626	     -2.78217727	     13.19186651	     28.56485115	      0.49855070	     26.85508706	     -0.06448592	      0.00000000	      0.11609101	      1.46997751	     -0.83675331	      0.21559261	      1.95507009	     -0.88905040	      0.19072592	      3.57410332	     -0.88905040	      0.13268041	      3.57410332	     -0.73215915	      0.10780211	      2.99757814	     -0.67986207	      0.06633440	      2.27699516	     -0.62756499	      0.82922647	     16.62867958	     -4.65377091	      0.00000000	      0.00000000	      4.19793827	     -3.57497935	     -7.03156673	      7.14675051	    -14.24951598	     14.65325117	     40.42019124	     87.14938996	    -13.49981796	     -2.47218631	      7.12607475	     -4.52602824	     21.63706308	     50.81282639	     88.35479987	    -13.79629666	     -3.80519194
      3.87037037	     10.20407686	    -20.96850075	    109.31140851	      0.22288281	      0.89077634	      0.69824371	     33.20392540	      0.18660048	    -15.50188813	     24.95217227	      0.43549756	     25.78434892	     -1.57374043	      0.00000000	     38.25052776	     -2.47078587	     12.64691492	     27.64674763	      0.48252677	     26.46938855	      0.35953509	      0.00000000	      0.06833161	      1.29460467	     -0.80260779	      0.12689863	      1.72182421	     -0.85277078	      0.11226200	      3.14770179	     -0.85277078	      0.07809619	      3.14770179	     -0.70228181	      0.06345273	      2.63995784	     -0.65211883	      0.03904468	      2.00534263	     -0.60195584	      0.48808583	     14.64482692	     -4.46386374	      0.00000000	      0.00000000	      5.29049242	     -3.39064661	     -8.76847091	      6.11287649	    -13.88827937	     14.78194878	     42.75547134	     87.52844497	    -13.90035151	     -3.31917777	      7.56568900	     -5.46861262	     23.05659981	     50.36367377	     88.42913547	    -13.52254292	     -4.78779014
      3.88888889	      8.81954664	    -20.64441986	    107.99367615	      0.22604686	      0.89412592	      0.69457272	     32.44719673	     -0.06811946	    -13.66396484	     24.85258248	      0.43375939	     25.61586174	     -2.21963388	      0.00000000	     36.73490974	     -2.35291366	     11.06200803	     26.61970899	      0.46460157	     26.18846540	      0.92450647	      0.00000000	      0.06055721	      1.05139281	     -0.57935078	      0.11246080	      1.39835244	     -0.61556020	      0.09948945	      2.55635648	     -0.61556020	      0.06921084	      2.55635648	     -0.50693193	      0.05623343	      2.14400022	     -0.47072251	      0.03460239	      1.62860746	     -0.43451308	      0.43255413	     11.89356575	     -3.22217521	      0.00000000	      0.00000000	      5.93642582	     -3.06092798	    -11.82531884	      4.72381237	    -13.40882373	     14.84162654	     45.32308928	     87.82015604	    -14.61765564	     -4.48746226	      7.90742968	     -6.86461197	     25.32419559	     50.09539890	     88.42065925	    -13.83598251	     -6.60045421
      3.90740741	      7.23364041	    -20.16542538	    106.67909066	      0.22917671	      0.89770087	      0.69031450	     31.44053899	     -0.53785568	    -11.96722030	     24.73028432	      0.43162489	     25.67265128	     -2.61976340	      0.00000000	     34.91260309	     -2.02389784	      9.43895673	     25.43302595	      0.44389004	     25.79927348	      1.53704767	      0.00000000	      0.02618637	      0.78837460	     -0.44020992	      0.04863071	      1.04853822	     -0.46772304	      0.04302159	      1.91685401	     -0.46772304	      0.02992840	      1.91685401	     -0.38518368	      0.02431666	      1.60765349	     -0.35767056	      0.01496289	      1.22119226	     -0.33015744	      0.18704663	      8.91825120	     -2.44831554	      0.00000000	      0.00000000	      6.49166807	     -2.23037071	    -14.25210984	      3.57354721	    -13.06401776	     15.72937773	     48.01337356	     87.89111281	    -14.98370240	     -5.07652351	      7.92754371	     -8.58859267	     27.21537288	     50.30374465	     88.54132557	    -13.96749521	     -8.87011448
